<svg width="40" height="40" viewBox="0 0 40 40" fill="none" xmlns="http://www.w3.org/2000/svg">
<g clip-path="url(#clip0_4743_21297)">
<rect width="40" height="40" rx="20" fill="#3772FF"/>
<rect x="-58" y="-7" width="141" height="188" fill="#0676F0"/>
<g clip-path="url(#clip1_4743_21297)">
<path d="M20 25C24.1421 25 27.5 21.6421 27.5 17.5C27.5 13.3579 24.1421 10 20 10C15.8579 10 12.5 13.3579 12.5 17.5C12.5 21.6421 15.8579 25 20 25Z" fill="#212121"/>
<path d="M20 27.5C13.7896 27.5069 8.75691 32.5396 8.75 38.75C8.75 39.4404 9.30963 40 9.99998 40H30C30.6903 40 31.2499 39.4404 31.2499 38.75C31.2431 32.5396 26.2104 27.5069 20 27.5Z" fill="#212121"/>
</g>
</g>
<defs>
<clipPath id="clip0_4743_21297">
<rect width="40" height="40" rx="20" fill="white"/>
</clipPath>
<clipPath id="clip1_4743_21297">
<rect width="30" height="30" fill="white" transform="translate(5 10)"/>
</clipPath>
</defs>
</svg>
